# xmcd
#
# Track frame offsets:
#	150
#	13621
#	34373
#	56694
#	80159
#	104542
#	118683
#	136946
#	156420
#	174710
#	207818
#	227264
#
# Disc length: 3179 seconds
#
# Revision: 1
# Processed by: cddbd v1.5.1PL0 Copyright (c) Steve Scherf et al.
# Submitted via: EasyCDDAExtractor 7.1.0.1
#
DISCID=a20c690c
DTITLE=Various Artist - Body and Soul Duets
DYEAR=2003
DGENRE=Soul
TTITLE0=Marvin Gaye and Kim Weston - It Takes Two
TTITLE1=Dionne Warwick and Jeffrey Osborne - Love Power
TTITLE2=Melba Moore (Duet with Freddie Jackson) - A Little Bit More
TTITLE3=Alexander O'Neal feat. Cherrelle - Never Knew Love Like This
TTITLE4=Cheryl Lynn with Luther Vandross - If This World Were Mine
TTITLE5=Jeffrey Osborne feat. Joyce Kennedy - The Last Time I Made Love
TTITLE6=Rene and Angela - Your Smile
TTITLE7=James Ingram and Patti Austin - How Do You Keep the Music Playing
TTITLE8=Aretha Franklin and George Michael - I Knew You Were Waiting (For Me)
TTITLE9=Rick James and Teena Marie - Fire and Desire
TTITLE10=Stacy Lattisaw with Johnny Gill - Where Do We Go From Here
TTITLE11=Marvin Gaye and Tammi Terrell - Ain't No Mountain High Enough
EXTD=
EXTT0=
EXTT1=
EXTT2=
EXTT3=
EXTT4=
EXTT5=
EXTT6=
EXTT7=
EXTT8=
EXTT9=
EXTT10=
EXTT11=
PLAYORDER=
